<svg width="60" height="60" viewBox="0 0 60 60" fill="none" xmlns="http://www.w3.org/2000/svg">
<path d="M54.916 24.2C54.916 24.2 51.916 27 46.816 30.3C45.416 22.2 41.516 12.2 33.916 0C33.916 0 31.416 13.1 23.116 25.4C19.516 19.8 17.916 15.4 17.916 15.4C-8.08402 41.5 13.516 60 27.116 60C44.516 60 59.816 51.6 54.916 24.2" fill="#FF9D33"/>
<path d="M44.616 47.4001C46.116 44.1001 47.216 39.8001 47.416 34.4001C47.416 34.4001 45.316 36.2 41.716 38.5C40.716 33.1 38.016 26.5 32.716 18.3C32.716 18.3 31.016 27 25.216 35.3C22.716 31.6 21.616 28.6 21.616 28.6C17.316 35.4001 15.616 40.8 15.516 45.1C13.116 44.2 11.616 43.5 11.616 43.5C15.716 55.7 24.216 58.4001 28.016 58.4001C34.816 58.4001 41.716 56.4001 48.516 46.7001C48.516 46.6001 47.016 47.0001 44.616 47.4001" fill="#FFCE31"/>
<path d="M19.8159 41.9C19.8159 41.9 22.6159 45.7 24.7159 44.8C24.7159 44.8 28.7159 38.5 34.5159 35C34.5159 35 33.3159 44.6 34.7159 46.3C36.5159 48.6 41.4159 43.8 41.4159 43.8C41.4159 49.5 35.2159 56.6 29.6159 56.6C24.2159 56.6 16.4159 50.4 19.8159 41.9" fill="#FFDF85"/>
<path d="M47.7159 16.0999C49.8159 13.0999 51.2159 9.8999 51.2159 9.8999C54.7159 15.6999 52.6159 19.1999 51.1159 20.2999C49.0159 21.8999 45.3159 19.5999 47.7159 16.0999" fill="#FF9D33"/>
<path d="M9.51595 15.1C7.41595 11.6 7.21595 7.19995 7.21595 7.19995C2.21595 14.7 4.11595 18.9 5.81595 20.1C8.01595 21.8 11.816 19.2 9.51595 15.1" fill="#FF9D33"/>
<path d="M21.116 7.3C21.416 4.9 20.416 2.5 20.416 2.5C25.116 5.6 25.116 8.2 24.516 9.3C23.616 10.6 20.816 10 21.116 7.3" fill="#FF9D33"/>
</svg>
